<svg xmlns="http://www.w3.org/2000/svg" width="512" height="512" viewBox="0 0 512 512" fill="none">
  <defs>
    <linearGradient id="bg512" x1="66" y1="56" x2="448" y2="464" gradientUnits="userSpaceOnUse">
      <stop stop-color="#05070D"/>
      <stop offset="0.55" stop-color="#111827"/>
      <stop offset="1" stop-color="#255AC8"/>
    </linearGradient>
    <linearGradient id="stroke512" x1="96" y1="78" x2="416" y2="436" gradientUnits="userSpaceOnUse">
      <stop stop-color="#F8FBFF" stop-opacity="0.55"/>
      <stop offset="1" stop-color="#A7C7FF" stop-opacity="0.18"/>
    </linearGradient>
  </defs>
  <rect width="512" height="512" rx="120" fill="url(#bg512)"/>
  <rect x="48" y="48" width="416" height="416" rx="96" fill="rgba(255,255,255,0.04)" stroke="url(#stroke512)" stroke-width="4"/>
  <path d="M225 275H112L156 231H204L302 133H382L225 275Z" fill="#F5F7FB"/>
  <path d="M239 323V297L395 141V167L239 323Z" fill="#DCE8FF"/>
  <path d="M239 380V354L395 198V224L239 380Z" fill="#DCE8FF"/>
  <path d="M239 437V411L329 321V347L239 437Z" fill="#DCE8FF"/>
  <circle cx="393" cy="128" r="36" fill="#F4B740"/>
  <path d="M381 128L391 138L408 121" stroke="#111827" stroke-width="12" stroke-linecap="round" stroke-linejoin="round"/>
</svg>
