<svg xmlns="http://www.w3.org/2000/svg" width="192" height="192" viewBox="0 0 192 192" fill="none">
  <defs>
    <linearGradient id="bg192" x1="24" y1="20" x2="168" y2="172" gradientUnits="userSpaceOnUse">
      <stop stop-color="#05070D"/>
      <stop offset="0.55" stop-color="#111827"/>
      <stop offset="1" stop-color="#255AC8"/>
    </linearGradient>
    <linearGradient id="stroke192" x1="38" y1="30" x2="154" y2="162" gradientUnits="userSpaceOnUse">
      <stop stop-color="#F8FBFF" stop-opacity="0.55"/>
      <stop offset="1" stop-color="#A7C7FF" stop-opacity="0.18"/>
    </linearGradient>
  </defs>
  <rect width="192" height="192" rx="44" fill="url(#bg192)"/>
  <rect x="18" y="18" width="156" height="156" rx="36" fill="rgba(255,255,255,0.04)" stroke="url(#stroke192)"/>
  <path d="M84 103H42L58 87H76L112 51H141L84 103Z" fill="#F5F7FB"/>
  <path d="M89 120V111L146 54V63L89 120Z" fill="#DCE8FF"/>
  <path d="M89 141V132L146 75V84L89 141Z" fill="#DCE8FF"/>
  <path d="M89 162V153L122 120V129L89 162Z" fill="#DCE8FF"/>
  <circle cx="144" cy="48" r="14" fill="#F4B740"/>
  <path d="M139.5 48L143 51.5L149.5 45" stroke="#111827" stroke-width="4.5" stroke-linecap="round" stroke-linejoin="round"/>
</svg>
